<?xml version="1.0" standalone="no"?>
<!DOCTYPE svg PUBLIC "-//W3C//DTD SVG 20010904//EN"
 "http://www.w3.org/TR/2001/REC-SVG-20010904/DTD/svg10.dtd">
<svg version="1.0" xmlns="http://www.w3.org/2000/svg"
 width="360.000000pt" height="360.000000pt" viewBox="0 0 360.000000 360.000000"
 preserveAspectRatio="xMidYMid meet">
<metadata>
Created by potrace 1.11, written by Peter Selinger 2001-2013
</metadata>
<g transform="translate(0.000000,360.000000) scale(0.100000,-0.100000)"
fill="#000000" stroke="none">
<path d="M0 1800 l0 -1800 1800 0 1800 0 0 1800 0 1800 -1800 0 -1800 0 0
-1800z m2189 1328 c22 -68 213 -658 426 -1312 213 -654 383 -1192 378 -1196
-8 -8 -232 -60 -256 -60 -10 0 -44 92 -108 285 l-93 285 -186 0 c-103 0 -355
3 -561 6 l-374 7 -139 -382 c-77 -209 -141 -381 -143 -381 -3 0 -584 399 -596
410 -7 6 1152 2402 1171 2422 7 7 298 34 389 37 l52 1 40 -122z"/>
<path d="M1792 2322 c-110 -331 -197 -602 -194 -602 37 2 687 160 686 166 -2
7 -276 988 -288 1029 -1 5 -93 -261 -204 -593z"/>
<path d="M1918 1567 l-407 -101 -22 -58 c-12 -32 -20 -60 -18 -62 2 -2 220 11
484 28 406 26 480 33 479 46 -1 8 -18 68 -40 133 -27 83 -43 117 -54 116 -8 0
-198 -46 -422 -102z"/>
<path d="M1176 1547 c-59 -108 -126 -251 -175 -375 -55 -138 -123 -354 -114
-363 5 -4 36 -19 70 -32 l62 -25 7 36 c34 205 127 503 221 705 l36 78 -19 26
c-11 15 -25 28 -31 30 -6 2 -32 -34 -57 -80z"/>
</g>
</svg>
